<svg xmlns="http://www.w3.org/2000/svg" viewBox="0 0 500 500">
  <defs>
    <clipPath id="90058448c6">
      <path d="m 192.125,49.125 h 23.74609 v 66.48828 H 192.125 Z m 0,0" clip-rule="nonzero" id="path9"></path>
    </clipPath>
    <clipPath id="accc9ecbf8">
      <path d="m 192.15625,51.773438 c 4.89453,-2.402344 10.12109,-2.71875 15.41406,-2.191407 2.77344,0.277344 5.58203,0.675781 8.06641,2.144531 -0.0117,6.128907 -0.0312,12.269532 -0.0508,18.402344 -2.08203,0.25 -3.28907,1.585938 -4.14844,3.351563 -1.96094,4.085937 -2.35156,8.460937 -2.3125,12.898437 0.0117,1.546875 0.73828,2.722656 2.32422,3.199219 1.68359,0.511719 2.37109,1.726563 2.30078,3.402344 -0.27734,6.660156 -0.59766,13.308591 -0.84766,19.968751 -0.0391,1.00391 -0.39843,1.43359 -1.375,1.65234 -5.20312,1.17969 -10.3789,1.15625 -15.55078,-0.0977 -1.03906,-0.25 -1.40625,-0.76953 -1.44531,-1.85547 -0.23047,-6.50781 -0.53906,-13.007815 -0.79688,-19.519534 -0.0703,-1.785156 0.65625,-3.03125 2.5,-3.449218 1.66407,-0.378907 2.32422,-1.464844 2.23438,-3.121094 -0.23828,-4.554688 -0.46094,-9.121094 -0.70703,-13.679688 -0.0312,-0.605468 0.20703,-1.574218 -0.82031,-1.515625 -1.00391,0.05078 -0.67579,1.007813 -0.67579,1.605469 -0.0117,2.84375 0.0508,5.695312 0.0312,8.535156 0,0.6875 0.32813,1.773438 -0.6914,1.855469 -1.10547,0.07813 -0.80469,-1.039063 -0.82422,-1.726563 -0.0898,-2.839843 -0.10156,-5.691406 -0.22266,-8.53125 -0.0273,-0.628906 0.42188,-1.765624 -0.77734,-1.714843 -0.9375,0.03906 -0.63672,1.023437 -0.65625,1.632812 -0.0586,2.691407 -0.0391,5.394531 -0.14063,8.085938 -0.0273,0.707031 0.42969,1.703125 -0.72656,2.054687 -0.0312,-10.46875 -0.0508,-20.9375 -0.082,-31.40625" clip-rule="nonzero" id="path12"></path>
    </clipPath>
    <clipPath id="1109c634b2">
      <path d="m 215.57422,51.5 h 21.66797 v 60.84766 h -21.66797 z m 0,0" clip-rule="nonzero" id="path15"></path>
    </clipPath>
    <clipPath id="72cbde54d8">
      <path d="m 215.59766,70.128906 c 0.0195,-6.132812 0.0273,-12.273437 0.0469,-18.402344 5.54297,1.683594 9.94141,5.101563 13.55859,9.449219 9.60157,11.554688 10.37891,26.886719 2.21485,39.570309 -3.01172,4.67579 -8.53516,9.40235 -13.42969,11.41407 -0.55859,-6.73828 -0.6875,-13.417972 -0.80859,-20.109379 -0.0195,-1.324219 0.95703,-2.042969 2.02343,-2.421875 1.95704,-0.707031 2.50391,-2.101562 2.48438,-4.015625 -0.0508,-3.78125 -0.73828,-7.429687 -2.00391,-10.96875 -0.73828,-2.054687 -1.97265,-3.679687 -4.07812,-4.503906" clip-rule="nonzero" id="path18"></path>
    </clipPath>
    <clipPath id="ce1d7c994f">
      <path d="m 170.75781,51.5 h 21.66406 v 60.84766 h -21.66406 z m 0,0" clip-rule="nonzero" id="path21"></path>
    </clipPath>
    <clipPath id="dc9045a1ca">
      <path d="m 192.15625,51.773438 c 0.0312,10.46875 0.0625,20.9375 0.082,31.40625 -1.40625,0.148437 -0.84766,-0.96875 -0.86719,-1.515626 -0.0898,-2.613281 -0.0391,-5.246093 -0.12109,-7.855468 -0.0195,-0.828125 0.19922,-2.195313 -0.84766,-2.234375 -1.23437,-0.03906 -0.83593,1.328125 -0.85547,2.144531 -0.0625,2.472656 -0.0117,4.945312 -0.0703,7.40625 -0.0195,0.828125 0.33985,2.164062 -0.8789,2.164062 -1.06641,0 -0.6875,-1.304687 -0.67579,-2.042968 0.008,-2.691406 0.12891,-5.382813 0.1875,-8.078125 0.0117,-0.644531 0.17188,-1.554688 -0.72656,-1.632813 -1.11719,-0.109375 -0.98828,0.917969 -1.01562,1.613282 -0.20313,4.488281 -0.35157,8.964843 -0.5586,13.449218 -0.0703,1.554688 0.4375,2.59375 2.02344,3.023438 1.82422,0.488281 2.65234,1.625 2.5625,3.617187 -0.3125,6.179688 -0.5,12.371099 -0.75,18.871099 -4.125,-1.73438 -7.20703,-4.38672 -10.00781,-7.31641 -11.85547,-12.402345 -11.47656,-33.558595 0.80859,-45.492189 3.37891,-3.277343 7.02735,-6.21875 11.70313,-7.515625" clip-rule="nonzero" id="path24"></path>
    </clipPath>
    <clipPath id="3ce7f9e20b">
      <path d="m 192,137.35937 h 26.23437 v 26.10547 H 192 Z m 0,0" clip-rule="nonzero" id="path105"></path>
    </clipPath>
    <clipPath id="6c8394d300">
      <path d="m 205.17187,142.88281 c -4.0664,-0.0117 -7.67578,3.50781 -7.64453,7.47656 0.0195,4.05469 3.58985,7.63672 7.53516,7.58594 4.07031,-0.0508 7.57812,-3.59765 7.52734,-7.59765 -0.0508,-3.94922 -3.53906,-7.45704 -7.40625,-7.47657 m 7.07813,18.60157 c -7.67578,3.47265 -14.0586,1.9375 -18.17578,-4.16407 -2.82032,-4.19922 -2.75,-9.90234 0.1914,-14.16015 3.17969,-4.60547 8.66407,-6.71875 13.9961,-5.38282 4.97656,1.23829 9.0625,5.48438 9.53125,10.44922 0.3789,3.97657 0.29687,7.9961 0.30859,12.00391 0,1.08594 0.64844,2.83203 -1.24609,2.92969 -1.64453,0.0898 -3.8086,1.08593 -4.60547,-1.67578" clip-rule="nonzero" id="path108"></path>
    </clipPath>
    <clipPath id="dce3aa7170">
      <path d="M 111.67969,137.35937 H 138 v 26.28516 h -26.32031 z m 0,0" clip-rule="nonzero" id="path111"></path>
    </clipPath>
    <clipPath id="5795791feb">
      <path d="m 131.92578,150.53906 c 0.0703,-3.85937 -3.03906,-7.10937 -6.92578,-7.25 -3.92969,-0.14062 -7.32031,3.10156 -7.37891,7.05078 -0.0586,3.64844 3.23829,7.20703 6.71875,7.26563 4.12891,0.0586 7.50782,-3.08985 7.57813,-7.06641 m -7.25781,-13.03125 c 7.22656,-0.0508 13.29687,5.85156 13.30859,12.94922 0.0117,6.80859 -6.20313,12.98047 -13.10156,13.01172 -6.95703,0.0273 -13,-5.82422 -13.08985,-12.67188 -0.0977,-7.28906 5.67579,-13.23046 12.88282,-13.28125" clip-rule="nonzero" id="path114"></path>
    </clipPath>
    <clipPath id="d97ef50db6">
      <path d="m 85.21875,137.35937 h 25.03906 v 26.28516 H 85.21875 Z m 0,0" clip-rule="nonzero" id="path117"></path>
    </clipPath>
    <clipPath id="b68c754a93">
      <path d="m 110.22266,137.66797 c -1.625,4.35547 -3.1211,8.39453 -4.63672,12.42187 -1.49219,3.97657 -3.0586,7.91407 -4.4961,11.91407 -0.89453,2.5 -2.941402,1.3164 -4.535152,1.55468 -1.214844,0.1875 -2.183594,-0.0703 -2.691407,-1.50781 -2.730469,-7.625 -5.554687,-15.22266 -8.324219,-22.83984 -0.148437,-0.41797 -0.167968,-0.875 -0.320312,-1.65235 1.914062,0 3.691406,-0.17187 5.40625,0.0898 0.644531,0.0977 1.394531,1.09375 1.652344,1.84375 1.535156,4.36718 2.941406,8.78125 4.398437,13.16797 0.226563,0.69921 0.515625,1.375 0.984375,2.62109 1.6875,-5.0625 3.152344,-9.57813 4.699224,-14.06641 1.43359,-4.16406 0.52734,-3.64843 5.28125,-3.69922 0.6875,0 1.36718,0.082 2.57421,0.15235" clip-rule="nonzero" id="path120"></path>
    </clipPath>
    <clipPath id="a37011aa1f">
      <path d="m 139.38281,137.53516 h 20.95703 v 25.7539 h -20.95703 z m 0,0" clip-rule="nonzero" id="path123"></path>
    </clipPath>
    <clipPath id="40a1fbaf23">
      <path d="m 157.08984,138.00781 c -0.85547,4.73438 -1.04687,4.88281 -4.84375,4.66406 -1.45703,-0.0898 -2.95312,-0.39062 -4.35937,-0.14843 -0.875,0.14843 -1.60547,1.125 -2.39063,1.73437 0.79688,0.71875 1.47657,1.75391 2.40235,2.10156 2.23437,0.83985 4.59765,1.27735 6.86718,2.00391 2.84375,0.91797 5.31641,2.28516 5.52344,5.74219 0.21094,3.46094 -1.60547,6.42969 -4.95312,7.88672 -4.64453,2.02343 -9.3125,0.86718 -14.32813,0.25781 0.5586,-1.39453 0.77735,-2.51172 1.38672,-3.33984 0.48047,-0.64454 1.40625,-1.27344 2.18359,-1.33594 1.35547,-0.10938 2.75,0.32031 4.13672,0.35156 1.21875,0.0273 2.51172,0.0195 3.64063,-0.35937 0.71875,-0.25 1.63281,-1.17579 1.67578,-1.83594 0.0391,-0.65625 -0.76953,-1.74219 -1.44922,-2.01172 -1.77344,-0.71875 -3.6875,-1.09766 -5.54297,-1.61719 -0.88672,-0.24609 -1.79297,-0.47656 -2.64844,-0.8164 -3.67187,-1.45704 -5.21484,-3.57032 -4.96484,-6.66797 0.29688,-3.64063 2.35938,-6.47266 6.03906,-6.83985 3.75,-0.39062 7.58594,0.11719 11.625,0.23828" clip-rule="nonzero" id="path126"></path>
    </clipPath>
    <clipPath id="01442bcd54">
      <path d="m 162.47266,128.125 h 12.42968 v 35.51953 h -12.42968 z m 0,0" clip-rule="nonzero" id="path129"></path>
    </clipPath>
    <clipPath id="4ed800f2c8">
      <path d="m 174.78516,136.40234 c -0.41797,1.5625 -0.60547,2.96094 -1.17579,4.17578 -0.26953,0.56641 -1.28515,1.1875 -1.90234,1.13672 -2.27344,-0.19922 -2.67187,0.86719 -2.63281,2.85157 0.10937,5.47265 -0.0312,10.95703 0.0703,16.42968 0.0273,1.88282 -0.51953,2.76172 -2.47266,2.52344 -0.6875,-0.082 -1.38671,-0.0508 -2.08593,-0.0234 -1.38282,0.0703 -1.94141,-0.57812 -1.92188,-1.9414 0.0273,-2.9336 0.008,-5.86328 0,-8.79297 -0.0312,-7.23828 -0.0508,-14.48828 -0.0898,-21.72266 -0.0117,-2.63281 0.49609,-2.86328 4.43359,-2.90234 2.27344,-0.0195 2.30469,1.22656 2.10547,2.83203 -0.0195,0.14844 -0.0195,0.30859 -0.0312,0.45703 -0.17969,4.4375 -0.17969,4.4375 4.12891,4.70703 0.3789,0.0195 0.74609,0.11719 1.59375,0.25781" clip-rule="nonzero" id="path132"></path>
    </clipPath>
    <clipPath id="7dd5ea0a7c">
      <path d="m 176.32422,137.00391 h 14.38281 v 26.64062 h -14.38281 z m 0,0" clip-rule="nonzero" id="path135"></path>
    </clipPath>
    <clipPath id="541b8651ce">
      <path d="m 176.44922,155.44141 c 0,-2.39063 -0.19922,-4.79297 0.043,-7.16797 0.58593,-5.98047 6.03906,-10.875 12.07031,-11.13672 1.37891,-0.0586 2.05469,0.3789 1.99609,1.79687 -0.0312,0.76563 -0.0312,1.54297 0,2.3125 0.0508,1.19532 -0.39062,1.75391 -1.67578,1.95313 -4.58594,0.73047 -6.82812,3.41015 -6.8789,8.09765 -0.0312,3.39844 -0.0898,6.79688 0.0586,10.19532 0.10156,2.375 -1.39453,2.09375 -2.87109,2.11718 -1.52344,0.0195 -3,0.15625 -2.85157,-2.15625 0.13282,-2.0039 0.0312,-4.01562 0.0312,-6.01953 0.0312,0 0.0586,0 0.10157,0" clip-rule="nonzero" id="path138"></path>
    </clipPath>
    <clipPath id="9f5595e96f">
      <path d="m 251.42187,137.13281 h 26.77735 v 26.77735 h -26.77735 z m 0,0" clip-rule="nonzero" id="path141"></path>
    </clipPath>
    <clipPath id="e20e339ef6">
      <path d="m 264.73828,143.20312 c -4.08594,0 -7.4375,3.32032 -7.36719,7.28516 0.0703,3.80078 3.48828,7.17969 7.33594,7.25 3.85156,0.0703 7.21875,-3.26953 7.25,-7.1875 0.0312,-4.21875 -3.05078,-7.35937 -7.20703,-7.34766 m 6.97656,18.54297 c -9.23047,4.9336 -17.92578,-0.73047 -19.89844,-8.19531 -1.88281,-7.14062 3.51954,-15.05469 10.71875,-16.16016 7.66407,-1.17578 15.49219,4.22657 15.51954,13.52735 0.0117,3.70703 -0.0586,7.41797 -0.27735,11.10547 -0.0312,0.57031 -1.08594,1.55468 -1.60547,1.51562 -1.57422,-0.1289 -3.8789,1.22656 -4.45703,-1.79297" clip-rule="nonzero" id="path144"></path>
    </clipPath>
    <clipPath id="ff20b13f37">
      <path d="m 296.17187,137.13281 h 26.77735 v 26.59766 h -26.77735 z m 0,0" clip-rule="nonzero" id="path147"></path>
    </clipPath>
    <clipPath id="ddf20874b9">
      <path d="m 309.58203,143.21094 c -4.14844,-0.0391 -7.23828,2.93359 -7.29687,7.01953 -0.0625,4.15625 3.05078,7.45703 7.14843,7.57812 3.78516,0.10938 7.50391,-3.58203 7.45703,-7.39843 -0.0508,-3.89844 -3.35937,-7.14844 -7.30859,-7.1875 m 7.01953,18.42187 c -5.64453,3.07031 -10.8789,2.73438 -15.63281,-1.26562 -4.20703,-3.54688 -5.77344,-8.22266 -4.17969,-13.48829 1.58594,-5.24218 5.16406,-8.54296 10.79688,-9.47265 7.69922,-1.26563 15.24609,4.8164 15.18359,13.08203 -0.0273,3.70703 -0.0664,7.41797 0.0117,11.11719 0.0312,1.5039 -0.53906,2.01172 -2.01563,2.04297 -3.38671,0.0703 -3.47656,0.0977 -4.15625,-2.01563" clip-rule="nonzero" id="path150"></path>
    </clipPath>
    <clipPath id="6c82bfcf6b">
      <path d="m 238.12109,128 h 12.22266 v 35.91016 h -12.22266 z m 0,0" clip-rule="nonzero" id="path153"></path>
    </clipPath>
    <clipPath id="bfe8ddc08f">
      <path d="M 238.19922,163.71094 V 128.4375 c 0.23828,-0.12891 0.37109,-0.25 0.50781,-0.25781 5.98438,-0.46094 6.05078,-0.46094 6.05078,5.39062 0,1.79688 0.64063,2.3125 2.29688,2.19531 1.03515,-0.0703 2.08984,0.0977 3.1289,0.16016 -0.17968,5.07422 -0.73828,5.73047 -5.38281,6.17969 0,0.84765 0,1.73437 0,2.61328 0,5.55078 -0.0703,11.10547 0.0273,16.65625 0.0312,1.85547 -0.57812,2.51172 -2.39062,2.34375 -1.35547,-0.12109 -2.73047,-0.0195 -4.24609,-0.0195" clip-rule="nonzero" id="path156"></path>
    </clipPath>
    <clipPath id="6e809c4f35">
      <path d="m 279.52344,127.92969 h 6.46875 v 35.6289 h -6.46875 z m 0,0" clip-rule="nonzero" id="path159"></path>
    </clipPath>
    <clipPath id="8648db23b3">
      <path d="m 228.77734,137 h 7.00782 v 27 h -7.00782 z m 0,0" clip-rule="nonzero" id="path162"></path>
    </clipPath>
    <clipPath id="deafad6e73">
      <path d="m 235.50781,163.33984 c -0.25,0.19922 -0.30078,0.28907 -0.36719,0.28907 -6.28125,0.73828 -6.29296,0.73828 -6.29296,-5.45313 -0.008,-6.03125 0.10156,-12.0625 -0.0508,-18.08594 -0.0586,-2.41015 0.8086,-3.25781 3.08204,-2.94922 0.23046,0.0312 0.46875,0 0.69921,0 3.07032,0.008 3.07813,0.008 3.07032,3.01954 0,7.49609 -0.0195,14.99609 -0.0312,22.5039 0,0.22656 -0.0703,0.45703 -0.10938,0.6875" clip-rule="nonzero" id="path165"></path>
    </clipPath>
    <clipPath id="a7533d7215">
      <path d="m 288.08594,137 h 7.00781 v 26.73047 h -7.00781 z m 0,0" clip-rule="nonzero" id="path168"></path>
    </clipPath>
    <clipPath id="653168fc57">
      <path d="m 294.9375,163.59766 h -6.5625 c -0.0703,-0.67579 -0.1875,-1.26563 -0.1875,-1.85157 -0.0117,-7.41015 0.0508,-14.80468 -0.0508,-22.21484 -0.0312,-1.86328 0.63672,-2.42188 2.39453,-2.40234 5.49219,0.0625 4.36328,-0.20704 4.40625,4.20703 0.0703,7.32031 0.0195,14.64843 0.0195,22.26172" clip-rule="nonzero" id="path171"></path>
    </clipPath>
    <clipPath id="5cfd86ee07">
      <path d="M 228.23828,127.78516 H 236 v 7.73046 h -7.76172 z m 0,0" clip-rule="nonzero" id="path174"></path>
    </clipPath>
    <clipPath id="d465a93c06">
      <path d="m 232.23828,127.91797 c 1.96484,0.0195 3.71875,1.73437 3.75781,3.67969 0.0391,2.02343 -1.79297,3.84765 -3.83593,3.80859 -1.97657,-0.0391 -3.75,-1.75391 -3.78907,-3.64844 -0.0312,-1.99609 1.84375,-3.85937 3.86719,-3.83984" clip-rule="nonzero" id="path177"></path>
    </clipPath>
    <clipPath id="0d92c3cdcf">
      <path d="m 287.54687,127.78516 h 7.90625 v 7.73046 h -7.90625 z m 0,0" clip-rule="nonzero" id="path180"></path>
    </clipPath>
    <clipPath id="36f29c0ff0">
      <path d="m 291.37891,135.40625 c -2.10547,-0.0312 -3.76172,-1.80469 -3.67188,-3.91797 0.082,-1.92578 1.89453,-3.60937 3.82813,-3.57031 1.92578,0.0391 3.71875,1.82422 3.73828,3.73047 0.0234,1.97265 -1.86328,3.79687 -3.90625,3.75781" clip-rule="nonzero" id="path183"></path>
    </clipPath>
  </defs>
  <path style="fill: rgb(38, 38, 38); fill-opacity: 1; stroke: none; stroke-width: 0.834; stroke-linecap: butt; stroke-linejoin: miter; stroke-opacity: 1;" d="M 143.005 455.401 C 143.005 455.401 238.05 505.825 345.272 455.542 C 452.492 405.261 356.454 136.804 356.454 136.804 L 97.396 152.105 L 114.534 394.21 L 143.005 455.401 Z" id="path2796"></path>
  <g clip-path="url(#90058448c6)" id="g192" transform="matrix(7.12211, 0, 0, 7.12211, -1207.46814, -343.151245)" style="">
    <g clip-path="url(#accc9ecbf8)" id="g190">
      <path fill="#f9f9f8" d="m 166.00781,44.378906 h 75.98438 v 75.984374 h -75.98438 z m 0,0" fill-opacity="1" fill-rule="nonzero" id="path188"></path>
    </g>
  </g>
  <g clip-path="url(#1109c634b2)" id="g198" transform="matrix(7.12211, 0, 0, 7.12211, -1207.46814, -343.151245)" style="">
    <g clip-path="url(#72cbde54d8)" id="g196">
      <path fill="#e52026" d="m 166.00781,44.378906 h 75.98438 v 75.984374 h -75.98438 z m 0,0" fill-opacity="1" fill-rule="nonzero" id="path194"></path>
    </g>
  </g>
  <g clip-path="url(#ce1d7c994f)" id="g204" transform="matrix(7.12211, 0, 0, 7.12211, -1207.46814, -343.151245)" style="">
    <g clip-path="url(#dc9045a1ca)" id="g202">
      <path fill="#139145" d="m 166.00781,44.378906 h 75.98438 v 75.984374 h -75.98438 z m 0,0" fill-opacity="1" fill-rule="nonzero" id="path200"></path>
    </g>
  </g>
</svg>
